<?xml version="1.0" standalone="no"?>
<!DOCTYPE svg PUBLIC "-//W3C//DTD SVG 20010904//EN"
 "http://www.w3.org/TR/2001/REC-SVG-20010904/DTD/svg10.dtd">
<svg version="1.0" xmlns="http://www.w3.org/2000/svg"
 width="404.000000pt" height="269.000000pt" viewBox="0 0 404.000000 269.000000"
 preserveAspectRatio="xMidYMid meet">
<metadata>
Created by potrace 1.16, written by Peter Selinger 2001-2019
</metadata>
<g transform="translate(0.000000,269.000000) scale(0.100000,-0.100000)"
fill="#000000" stroke="none">
<path d="M603 2470 c-77 -39 -73 8 -73 -857 0 -658 2 -777 15 -828 59 -229
235 -345 505 -332 165 7 292 67 376 177 21 28 40 50 42 50 2 0 25 -18 50 -40
101 -90 248 -157 394 -180 108 -17 324 -8 404 18 282 90 460 312 600 750 32
97 59 179 61 181 1 2 31 -23 65 -55 35 -33 115 -95 178 -139 286 -196 305
-217 298 -336 -3 -56 -9 -76 -33 -110 -71 -100 -208 -121 -404 -61 -132 41
-164 41 -202 3 -23 -24 -29 -38 -29 -73 0 -56 19 -82 82 -114 133 -67 371 -94
512 -58 235 60 374 263 339 493 -25 160 -97 246 -363 431 -91 63 -178 128
-194 145 -65 69 -83 157 -43 215 41 60 70 75 160 78 71 3 95 -1 172 -27 123
-42 165 -40 207 13 25 30 23 97 -4 131 -65 83 -356 133 -523 89 -190 -49 -314
-205 -416 -520 -22 -71 -59 -185 -81 -254 -131 -407 -314 -575 -623 -573 -218
2 -378 102 -467 289 -60 127 -73 318 -34 464 40 143 144 272 268 330 123 57
297 60 438 8 150 -56 195 -59 246 -15 20 18 28 35 31 73 5 44 2 54 -23 83 -51
61 -201 114 -373 131 -287 30 -548 -66 -707 -259 -176 -212 -230 -529 -143
-825 20 -65 20 -72 5 -103 -80 -169 -315 -224 -436 -103 -68 68 -70 82 -70
597 l0 453 188 0 c214 0 244 8 275 71 15 31 16 41 5 74 -7 21 -26 48 -41 59
-26 19 -44 21 -227 24 l-198 3 -4 172 c-2 138 -6 178 -20 203 -36 65 -116 88
-185 54z"/>
</g>
</svg>
